# xmcd CD database file
#
# Track frame offsets:
#	150
#	10272
#	20575
#	29102
#	39221
#	48196
#	60356
#	72014
#	85581
#	96750
#	105571
#	115469
#	128296
#	138265
#
# Disc length: 1970 seconds
#
# Revision: 0
# Processed by: cddbd v1.5.2PL0 Copyright (c) Steve Scherf et al.
# Submitted via: CDex 1.70beta2
#
DISCID=a607b00e
DTITLE=Johnny Cash - The Fabulous Johnny Cash
DYEAR=2009
DGENRE=Country
TTITLE0=Run softly, blue river
TTITLE1=Frankie and johnny
TTITLE2=That's all over
TTITLE3=The troubadour
TTITLE4=One more ride
TTITLE5=That's enough
TTITLE6=I still miss someone
TTITLE7=Don't take your guns to town
TTITLE8=I'd rather die young
TTITLE9=Pickin' time
TTITLE10=Shepherd of my heart
TTITLE11=Supper-time
TTITLE12=All over again
TTITLE13=What do I care
EXTD=YEAR: 2009
EXTT0=
EXTT1=
EXTT2=
EXTT3=
EXTT4=
EXTT5=
EXTT6=
EXTT7=
EXTT8=
EXTT9=
EXTT10=
EXTT11=
EXTT12=
EXTT13=
PLAYORDER=
